<?xml version="1.0" encoding="UTF-8"?>
<svg xmlns="http://www.w3.org/2000/svg" xmlns:xlink="http://www.w3.org/1999/xlink" width="900pt" height="899.99999pt" viewBox="0 0 900 899.99999" version="1.2">
<g id="surface1">
<path style=" stroke:none;fill-rule:nonzero;fill:rgb(100%,56.858826%,30.198669%);fill-opacity:1;" d="M 416.839844 422.222656 C 398.148438 430.378906 380.640625 450.570312 380.023438 475.410156 C 378.78125 523.640625 437.394531 553.175781 476.070312 514.449219 C 522.132812 468.4375 472.972656 397.796875 416.839844 422.222656 "/>
<path style=" stroke:none;fill-rule:nonzero;fill:rgb(100%,56.858826%,30.198669%);fill-opacity:1;" d="M 600.003906 557.515625 L 572.429688 585.089844 C 597.988281 610.652344 616.476562 635.285156 633.363281 618.449219 C 651.382812 600.375 623.601562 581.113281 600.003906 557.515625 "/>
<path style=" stroke:none;fill-rule:nonzero;fill:rgb(100%,56.858826%,30.198669%);fill-opacity:1;" d="M 548.570312 608.949219 L 519.859375 637.660156 C 553.683594 671.429688 571.035156 695.289062 588.4375 677.886719 C 606.71875 659.65625 580.175781 640.550781 548.570312 608.949219 "/>
<path style=" stroke:none;fill-rule:nonzero;fill:rgb(100%,56.858826%,30.198669%);fill-opacity:1;" d="M 621.332031 652.996094 C 633.515625 680.105469 626.90625 696.0625 613.222656 709.746094 C 587.042969 735.929688 554.769531 722.863281 528.691406 696.785156 L 466.722656 634.820312 L 597.214844 504.378906 C 661.042969 568.257812 677.152344 579.617188 680.042969 605.539062 C 683.296875 634.507812 654.949219 663.375 621.332031 652.996094 Z M 367.785156 405.4375 C 404.242188 369.03125 463.882812 366.605469 504.78125 407.503906 C 557.351562 460.074219 536.4375 540.421875 475.039062 565.054688 C 379.761719 603.265625 292.597656 480.523438 367.785156 405.4375 Z M 207.910156 340.578125 L 246.121094 338.566406 C 244.46875 372.183594 262.335938 383.800781 274.882812 383.183594 C 287.949219 382.5625 290.582031 376.832031 380.074219 287.289062 L 409.558594 316.722656 L 324.199219 402.082031 C 268.84375 457.4375 202.796875 398.363281 207.910156 340.578125 Z M 107.316406 219.332031 C 86.300781 198.3125 87.539062 164.699219 107.316406 144.972656 C 137.058594 115.175781 189.679688 130.925781 196.289062 174.097656 C 204.035156 224.445312 143.050781 255.066406 107.316406 219.332031 Z M 827.578125 490.539062 L 393.394531 56.410156 C 367.578125 30.589844 364.53125 37.097656 121.363281 52.847656 C 60.582031 56.824219 80.152344 55.429688 72.511719 56.359375 C 43.128906 60.078125 20.097656 83.933594 18.136719 113.832031 L 0.679688 383.078125 C -0.453125 400.894531 6.105469 418.398438 18.753906 431.050781 L 452.882812 865.179688 C 477.207031 889.503906 516.554688 889.503906 540.878906 865.179688 L 827.578125 578.480469 C 851.847656 554.210938 851.847656 514.808594 827.578125 490.539062 "/>
<path style=" stroke:none;fill-rule:nonzero;fill:rgb(100%,56.858826%,30.198669%);fill-opacity:1;" d="M 477.824219 397.640625 C 471.371094 397.640625 464.554688 398.984375 457.53125 402.082031 C 442.144531 408.796875 425.257812 426.457031 424.6875 449.382812 C 424.171875 469.417969 435.84375 487.542969 454.332031 495.496094 C 473.28125 503.605469 493.886719 499.164062 509.480469 483.566406 C 532.148438 460.949219 527.710938 434.613281 517.019531 418.917969 C 508.964844 407.039062 494.761719 397.640625 477.824219 397.640625 Z M 473.179688 512.640625 C 465.070312 512.640625 456.914062 511.039062 449.167969 507.683594 C 425.566406 497.5625 410.796875 474.53125 411.46875 449.074219 C 412.191406 420.207031 432.488281 398.570312 452.265625 389.945312 C 484.796875 375.796875 513.714844 390.566406 527.96875 411.480469 C 542.582031 432.910156 545.371094 466.425781 518.777344 492.914062 C 505.917969 505.824219 489.652344 512.640625 473.179688 512.640625 "/>
<path style=" stroke:none;fill-rule:nonzero;fill:rgb(100%,56.858826%,30.198669%);fill-opacity:1;" d="M 619.78125 558.910156 C 621.742188 560.871094 623.601562 562.835938 625.460938 564.746094 C 638.527344 578.273438 650.917969 591.082031 659.441406 591.183594 C 660.988281 591.132812 663.46875 590.824219 666.722656 587.570312 C 670.234375 584.058594 670.644531 581.425781 670.59375 579.773438 C 670.4375 571.148438 657.683594 559.117188 645.292969 547.445312 C 642.914062 545.226562 640.539062 542.902344 638.113281 540.578125 Z M 659.542969 604.402344 C 659.492188 604.402344 659.390625 604.402344 659.335938 604.402344 C 645.292969 604.25 632.328125 590.875 615.960938 573.9375 C 612.707031 570.578125 609.300781 567.070312 605.839844 563.558594 L 601.140625 558.910156 L 638.0625 521.988281 L 642.710938 526.636719 C 646.582031 530.457031 650.507812 534.226562 654.378906 537.789062 C 670.027344 552.609375 683.605469 565.363281 683.8125 579.566406 C 683.917969 585.863281 681.335938 591.699219 676.121094 596.914062 C 671.164062 601.875 665.585938 604.402344 659.542969 604.402344 "/>
<path style=" stroke:none;fill-rule:nonzero;fill:rgb(100%,56.858826%,30.198669%);fill-opacity:1;" d="M 567.265625 611.425781 C 570.414062 614.628906 573.410156 617.777344 576.300781 620.722656 C 592.671875 637.554688 605.582031 650.878906 614.203125 650.929688 C 616.269531 650.464844 618.335938 650.515625 621.847656 647.003906 C 625.460938 643.390625 625.875 640.652344 625.875 638.949219 C 625.773438 629.808594 611.984375 616.539062 596.027344 601.148438 C 592.980469 598.207031 589.882812 595.210938 586.628906 592.0625 Z M 614.257812 664.148438 C 614.203125 664.148438 614.152344 664.148438 614.101562 664.148438 C 599.953125 664.046875 586.785156 650.464844 566.800781 629.914062 C 562.617188 625.574219 558.125 620.929688 553.269531 616.125 L 548.570312 611.425781 L 586.628906 573.367188 L 591.328125 578.066406 C 596.132812 582.871094 600.777344 587.363281 605.21875 591.597656 C 624.789062 610.496094 638.941406 624.128906 639.09375 638.796875 C 639.144531 645.148438 636.511719 651.035156 631.195312 656.351562 C 626.03125 661.515625 620.351562 664.148438 614.257812 664.148438 "/>
<path style=" stroke:none;fill-rule:nonzero;fill:rgb(100%,56.858826%,30.198669%);fill-opacity:1;" d="M 150.074219 123.386719 C 141.707031 131.75 136.855469 143.472656 136.699219 155.558594 C 136.542969 168.003906 141.292969 179.671875 150.074219 188.453125 C 164.324219 202.703125 185.1875 206.007812 203.261719 196.867188 C 217.617188 189.585938 231.609375 173.167969 227.839844 148.894531 C 225.15625 131.492188 213.640625 117.859375 197.011719 112.386719 C 180.28125 106.964844 162.3125 111.148438 150.074219 123.386719 Z M 182.140625 215.253906 C 166.960938 215.253906 152.191406 209.261719 140.726562 197.796875 C 129.417969 186.488281 123.324219 171.460938 123.480469 155.402344 C 123.632812 139.910156 129.933594 124.832031 140.726562 114.039062 C 156.527344 98.238281 179.664062 92.816406 201.09375 99.839844 C 222.574219 106.863281 237.445312 124.46875 240.90625 146.882812 C 244.882812 172.648438 232.4375 196.867188 209.25 208.695312 C 200.523438 213.082031 191.28125 215.253906 182.140625 215.253906 Z M 252.320312 320.648438 C 252.320312 347.757812 268.996094 375.28125 292.855469 386.433594 C 314.648438 396.554688 337.625 391.1875 357.558594 371.203125 L 438.269531 290.542969 L 418.183594 270.453125 C 402.742188 285.894531 389.988281 298.753906 379.453125 309.390625 C 329.3125 359.945312 326.316406 362.941406 313.304688 363.558594 C 305.09375 364.074219 296.78125 360.511719 290.429688 354.210938 C 284.695312 348.429688 278.136719 337.84375 277.519531 319.304688 Z M 314.59375 404.613281 C 305.402344 404.613281 296.210938 402.546875 287.277344 398.363281 C 256.449219 384.007812 236.308594 348.429688 239.410156 313.832031 L 239.925781 308.097656 L 291.152344 305.363281 L 290.789062 312.644531 C 289.910156 330.976562 295.179688 340.269531 299.773438 344.867188 C 305.09375 350.132812 310.464844 350.339844 312.683594 350.390625 C 320.378906 350.03125 324.046875 346.464844 370.054688 300.09375 C 381.675781 288.371094 395.875 274.015625 413.484375 256.410156 L 418.183594 251.761719 L 456.964844 290.542969 L 366.90625 380.546875 C 351.050781 396.453125 332.875 404.613281 314.59375 404.613281 Z M 472.867188 357.878906 C 472.816406 357.878906 472.714844 357.878906 472.660156 357.878906 C 449.371094 357.929688 427.269531 367.175781 410.539062 383.90625 C 372.84375 421.550781 381.261719 467.871094 399.902344 496.167969 C 420.972656 528.03125 463.316406 551.730469 510.667969 532.730469 C 538.347656 521.625 558.433594 497.613281 564.371094 468.488281 C 570.464844 438.796875 560.914062 408.742188 538.191406 385.96875 C 520.066406 367.84375 496.878906 357.878906 472.867188 357.878906 Z M 476.535156 552.765625 C 438.785156 552.765625 406.925781 530.765625 388.851562 503.398438 C 360.707031 460.742188 365.5625 410.1875 401.195312 374.558594 C 420.402344 355.347656 445.808594 344.710938 472.660156 344.660156 C 472.714844 344.660156 472.816406 344.660156 472.867188 344.660156 C 500.390625 344.660156 526.882812 356.019531 547.539062 376.625 C 573.460938 402.546875 584.355469 437.042969 577.335938 471.175781 C 570.464844 504.636719 547.382812 532.210938 515.574219 544.96875 C 502.097656 550.390625 488.980469 552.765625 476.535156 552.765625 Z M 514.179688 608.636719 L 571.449219 665.90625 C 584.5625 679.074219 598.042969 687.4375 610.433594 690.175781 C 623.859375 693.222656 636.097656 689.402344 646.632812 678.867188 C 658.613281 666.886719 664.347656 653.925781 653.398438 629.550781 L 647.410156 616.230469 L 661.351562 620.515625 C 674.15625 624.492188 687.273438 621.960938 697.34375 613.59375 C 707.515625 605.230469 712.9375 592.371094 711.542969 580.03125 C 709.375 560.71875 698.582031 550.027344 658.304688 510.367188 C 651.488281 503.605469 643.84375 496.066406 635.273438 487.542969 Z M 619.214844 704.429688 C 615.390625 704.429688 611.519531 703.964844 607.542969 703.085938 C 592.722656 699.78125 577.023438 690.175781 562.101562 675.253906 L 495.488281 608.636719 L 635.273438 468.851562 L 639.972656 473.5 C 650.402344 483.980469 659.59375 493.019531 667.597656 500.96875 C 709.375 542.125 721.976562 554.570312 724.710938 578.585938 C 726.570312 595.261719 719.339844 612.613281 705.8125 623.769531 C 695.484375 632.339844 682.730469 636.367188 669.769531 635.4375 C 675.964844 656.09375 671.472656 672.671875 655.980469 688.214844 C 645.238281 698.953125 632.691406 704.429688 619.214844 704.429688 Z M 380.796875 19.4375 C 359.933594 19.4375 327.039062 21.710938 271.890625 25.582031 C 241.679688 27.75 204.863281 30.332031 159.882812 33.277344 L 129.832031 35.1875 C 117.851562 35.960938 115.011719 36.167969 114.132812 36.269531 C 114.234375 36.324219 113.410156 36.476562 111.394531 36.734375 C 84.957031 40.039062 64.558594 61.625 62.804688 88.066406 L 45.347656 357.3125 C 44.316406 373.265625 50.203125 388.863281 61.511719 400.171875 L 495.640625 834.351562 C 506.175781 844.835938 520.117188 850.617188 534.9375 850.617188 C 549.8125 850.617188 563.753906 844.835938 574.234375 834.351562 L 860.9375 547.652344 C 871.46875 537.117188 877.253906 523.175781 877.253906 508.304688 C 877.253906 493.484375 871.46875 479.488281 860.9375 469.007812 L 426.808594 34.878906 C 415.960938 23.980469 410.4375 19.4375 380.796875 19.4375 Z M 534.9375 863.835938 C 516.554688 863.835938 499.308594 856.660156 486.292969 843.648438 L 52.164062 409.570312 C 38.171875 395.523438 30.890625 376.160156 32.128906 356.433594 L 49.636719 87.238281 L 56.246094 87.652344 L 49.636719 87.238281 C 51.753906 54.449219 77.054688 27.699219 109.792969 23.621094 L 111.136719 23.414062 C 111.964844 23.101562 111.964844 23.101562 129.003906 22.019531 L 159.058594 20.054688 C 203.984375 17.164062 240.75 14.53125 270.960938 12.414062 C 404.964844 2.914062 412.96875 2.394531 436.152344 25.53125 L 870.335938 459.660156 C 883.296875 472.671875 890.472656 489.917969 890.472656 508.304688 C 890.472656 526.6875 883.296875 543.984375 870.335938 556.949219 L 583.582031 843.648438 C 570.621094 856.660156 553.320312 863.835938 534.9375 863.835938 "/>
</g>
</svg>
